<?xml version="1.0" standalone="no"?>
<!DOCTYPE svg PUBLIC "-//W3C//DTD SVG 20010904//EN"
 "http://www.w3.org/TR/2001/REC-SVG-20010904/DTD/svg10.dtd">
<svg version="1.0" xmlns="http://www.w3.org/2000/svg"
 width="300.000000pt" height="300.000000pt" viewBox="0 0 300.000000 300.000000"
 preserveAspectRatio="xMidYMid meet">
<metadata>
Created by potrace 1.10, written by Peter Selinger 2001-2011
</metadata>
<g transform="translate(0.000000,300.000000) scale(0.100000,-0.100000)"
fill="#000000" stroke="none">
<path d="M1934 2256 c-17 -7 -41 -27 -53 -42 -17 -22 -32 -29 -61 -31 -47 -2
-95 -26 -116 -58 -12 -18 -25 -25 -49 -25 -42 0 -90 -38 -107 -85 -15 -43 -34
-45 -43 -6 -8 40 -69 107 -119 133 -30 16 -60 22 -111 22 -59 1 -77 -3 -117
-27 -27 -15 -48 -32 -48 -37 0 -6 -7 -10 -15 -10 -8 0 -15 4 -15 9 0 19 -87
51 -136 51 -66 0 -146 -38 -175 -83 l-22 -34 -46 26 c-122 69 -305 -4 -340
-135 -6 -25 -13 -30 -52 -35 -117 -14 -211 -127 -213 -255 -1 -45 -6 -67 -20
-83 -26 -29 -32 -101 -12 -141 15 -31 15 -33 -9 -52 -46 -36 -54 -130 -20
-214 19 -45 163 -190 207 -209 43 -17 144 -20 185 -4 15 5 40 21 54 35 23 22
27 23 39 9 21 -25 66 -45 102 -45 29 0 36 -5 46 -33 17 -48 77 -114 125 -138
22 -12 66 -24 98 -26 48 -5 66 -1 115 22 44 21 72 28 109 26 65 -3 132 37 141
85 l6 31 46 -9 c26 -5 70 -14 98 -20 29 -6 63 -8 76 -5 19 5 31 0 49 -19 100
-107 269 -109 370 -5 l45 47 44 -19 c34 -15 50 -17 75 -10 25 8 39 6 66 -8 41
-22 98 -24 143 -5 20 8 39 10 47 5 25 -15 91 -10 136 12 44 21 93 79 93 111 0
13 6 16 33 11 22 -3 46 1 67 12 19 10 42 14 56 11 38 -10 100 11 131 44 15 17
34 30 41 30 19 0 75 31 89 49 16 20 16 92 2 125 -9 18 -9 29 -1 38 18 22 25
85 12 122 -6 19 -25 46 -41 60 -25 21 -29 32 -29 73 0 103 -99 194 -201 184
-12 -1 -18 9 -23 37 -7 48 -42 101 -83 127 -28 17 -32 26 -33 63 0 53 -25 98
-62 114 -15 7 -30 23 -33 38 -10 38 -64 89 -104 96 -19 4 -44 15 -55 26 -45
41 -119 43 -159 3 -15 -15 -19 -14 -47 6 -37 28 -130 36 -176 15z m155 -42
c12 -9 31 -30 42 -48 12 -20 19 -25 19 -14 0 26 42 67 75 74 36 7 93 -30 76
-50 -7 -8 2 -10 32 -8 78 6 127 -58 101 -134 l-13 -39 24 30 24 29 28 -20 c52
-39 48 -113 -7 -141 -23 -12 -22 -12 23 -11 57 1 93 -21 119 -73 27 -53 23
-100 -12 -140 -42 -48 -37 -60 8 -17 44 42 71 52 118 43 47 -8 111 -68 124
-114 9 -35 2 -94 -16 -122 -6 -12 -5 -12 8 -1 34 27 88 -28 88 -88 -1 -47 -20
-79 -61 -102 l-34 -18 30 2 c67 6 65 -106 -3 -130 -27 -9 -31 -8 -38 11 -6 20
-7 19 -11 -9 -5 -42 -42 -74 -92 -81 -36 -5 -44 -2 -76 30 -37 37 -46 37 -18
-2 15 -23 15 -25 -2 -37 -45 -33 -124 2 -126 54 0 15 -3 21 -6 14 -2 -6 -8
-10 -13 -7 -4 2 0 -15 8 -38 20 -56 11 -91 -37 -139 -34 -34 -44 -38 -87 -38
-27 1 -60 7 -73 14 -21 11 -26 10 -47 -11 -43 -43 -134 -18 -134 38 0 20 -2
20 -31 -5 -35 -30 -67 -33 -109 -11 -37 19 -50 43 -50 92 0 28 -3 34 -10 23
-5 -8 -9 -31 -8 -51 2 -48 -28 -96 -81 -134 -39 -27 -50 -30 -120 -30 -68 0
-82 3 -118 28 -22 15 -50 46 -62 68 -23 40 -23 40 -38 19 -12 -18 -23 -21 -52
-17 -20 3 -58 8 -86 11 -59 8 -111 23 -143 44 -12 8 -25 12 -29 8 -3 -3 -1 -6
6 -6 6 0 16 -11 21 -25 24 -63 -52 -140 -116 -118 -17 6 -27 16 -25 24 12 45
10 50 -9 17 -11 -21 -39 -49 -65 -64 -40 -23 -54 -26 -110 -22 -51 3 -73 10
-107 34 -52 36 -88 102 -88 161 l0 43 -20 -20 c-37 -37 -124 -18 -147 32 -5
13 -8 41 -6 63 l3 40 -15 -46 c-51 -157 -279 -169 -355 -18 -11 21 -21 49 -21
61 -1 18 -3 17 -8 -7 l-7 -30 -27 29 c-71 76 -28 208 77 238 l41 11 -39 7
c-76 14 -113 104 -67 161 l19 24 27 -25 27 -25 -26 49 c-33 62 -34 118 -3 177
51 96 154 139 245 103 68 -27 70 -28 42 -5 -14 11 -31 21 -39 21 -22 0 -7 76
24 116 35 46 78 72 132 80 92 14 158 -19 212 -106 34 -55 34 -55 11 11 -11 30
-10 40 5 72 10 21 31 47 48 59 37 26 124 36 167 18 37 -15 80 -64 80 -91 0
-10 5 -19 10 -19 6 0 10 9 10 20 0 26 52 84 94 104 63 30 161 16 216 -31 34
-28 70 -91 70 -123 0 -17 6 -20 48 -20 31 0 61 -8 90 -25 57 -32 54 -17 -4 18
-41 25 -45 31 -40 55 13 54 79 86 121 58 24 -16 25 -16 25 9 0 38 27 72 66 85
45 15 77 7 109 -28 14 -15 25 -21 25 -15 0 7 -4 15 -10 18 -27 16 10 87 54
105 35 14 100 11 125 -6z"/>
<path d="M2015 2118 c-22 -13 -44 -38 -45 -51 0 -5 14 3 31 17 17 14 41 26 54
26 13 0 37 -12 54 -26 17 -14 31 -21 31 -15 0 16 47 13 86 -5 44 -21 76 -66
72 -101 -2 -18 5 -35 24 -53 38 -39 46 -94 19 -131 -27 -37 -10 -38 19 -1 30
38 22 97 -18 133 -23 21 -28 32 -24 60 7 64 -73 133 -147 128 -22 -2 -46 4
-61 14 -28 20 -66 22 -95 5z"/>
<path d="M955 1794 c-27 -18 -41 -22 -48 -15 -15 15 -73 14 -105 -3 -59 -31
-112 -120 -96 -161 3 -7 -3 -16 -15 -20 -24 -7 -51 -53 -51 -87 0 -28 35 -88
51 -88 8 0 7 6 -3 18 -39 44 -28 119 23 149 17 10 24 20 18 24 -33 20 56 140
116 155 31 8 78 -3 70 -16 -10 -16 0 -12 25 10 31 27 92 44 125 36 15 -4 38
-19 51 -33 17 -19 24 -22 24 -10 0 8 -14 27 -31 41 -42 35 -102 35 -154 0z"/>
<path d="M2308 1495 c26 -33 28 -62 7 -113 -21 -49 -52 -81 -100 -103 -22 -10
-34 -19 -27 -19 16 0 7 -54 -13 -83 -39 -56 -141 -94 -218 -83 -43 7 -47 9
-41 29 6 22 6 22 -19 -1 -59 -55 -164 -32 -198 42 -16 35 -19 37 -19 16 0 -89
135 -154 199 -96 16 14 21 14 56 -4 65 -33 145 -23 213 27 45 34 63 65 64 111
0 34 4 41 23 46 32 8 83 52 101 88 32 61 12 150 -36 166 -8 3 -5 -6 8 -23z"/>
</g>
</svg>
