<?xml version='1.0' encoding='iso-8859-1'?>
<svg version="1.1" xmlns="http://www.w3.org/2000/svg" viewBox="0 0 490 490" xmlns:xlink="http://www.w3.org/1999/xlink" enable-background="new 0 0 490 490">
  <g>
    <g>
      <path d="m245,0c-135.5,0-245,109.5-245,245s109.5,245 245,245 245-109.5 245-245-109.5-245-245-245zm0,20.9c38.8,0 75.2,9.8 107,27-1.6,5.7-4.4,14.5-7.2,23.4h-31.9l-10.6,34.3h-35.4v57.3l-55.5,15.5v48.1h-18.4l-36-50.7h-32.8l-6.2,30.9-24.4,8.8v-50.1l-40.1-28.2-6.6,37.7-16.4,4.9c27.8-92.1 113.1-158.9 214.5-158.9zm0,448.2c-124.1,0-224.1-100-224.1-224.1 0-14.2 1.3-28.1 3.8-41.6l40.6-12.1 3.2-17.9 4,2.8v69.1l63.8-22.9 5.2-25.6h4.7l35.9,50.6h50.3v-53.2l55.5-15.5v-52.2h29.9l10.6-34.3h31.8c0,0 8.6-27.3 10.4-33.2 59.5,40.2 98.6,108.4 98.6,185.8-0.1,124.3-100.1,224.3-224.2,224.3z"/>
      <path d="m359,266.8l-76.8,9.2-30.2,31-51.3,16.9v62.3l68,1 29.6-17 58.1,37.6 50.8-89.9-48.2-51.1zm-9.9,111.2l-50.1-32.4-35.8,20.5-41.5-.6v-26.3l41.8-13.7 28.6-29.4 58.8-7.1 30.3,32.1-32.1,56.9z"/>
    </g>
  </g>
</svg>
