<?xml version="1.0" encoding="UTF-8"?>
<svg width="379.5" height="167.71" enable-background="new 0 0 385.39 178.502" viewBox="0 0 379.50197 167.70796" xmlns="http://www.w3.org/2000/svg">
 <g transform="translate(9.7361 -1.9453)">
  <path transform="matrix(1.4348 0 0 1.4348 -48.885 -75.077)" d="m112.03 155.23c0 7.7122-6.252 13.964-13.964 13.964s-13.964-6.252-13.964-13.964 6.252-13.964 13.964-13.964 13.964 6.252 13.964 13.964z" fill="#fff" fill-rule="evenodd" stroke="#000" stroke-width="2.7692"/>
  <path d="m182.4619,15.29144c-2.429,9.146-10.835,12.313-18.095,16.628 .265,8.71-.471,16.881 0,24.452 12.784-.156 20.069-.022 33.744,0 1.599,1.825 1.745,5.101 2.935,7.335 6.992,2.549 16.89,1.428 20.051-3.912 22.185.044 50.87743,4.44299 54.59986,4.99943s8.55764,1.38857 10.93214.86857 6.404-6.307 8.803-9.292c3.045-3.79 6.312-7.28 7.824-10.27 2.73676-8.66101 5.95542-15.09727 12.07639-20.90847s22.91461-13.33053 35.84961-5.50053c1.604,16.376-1.07,32.332-1.467,47.438 6.301,1.36 14.844.48 20.051,2.935-2.972,4.69-10.755,4.569-17.605,5.379-1.035,1.663 2.667,3.444.978,5.869-6.922,2.354-14.733,3.811-22.496,5.379-7.712,1.559-15.7,2.324-22.985,4.401 .645,3.453 3.1409,4.3775 7.336,5.379s8.37392-1.77303 9.292,2.935-6.795,3.58-9.781,2.445c-3.296-1.253-4.14413-1.33891-7.21617-3.89895s-3.71483-4.24304-4.52083-5.88204c-45.842,9.95199-84.451,18.30499-131.554,26.40899 1.6,3.454 6.165,3.941 5.868,9.292-19.733,1.876-34.718-.965-53.306,0-4.14944.89513-17.05726,2.71383-14.59233,6.33291 2.55342,3.74898-2.42866-1.10629-10.43747-4.09906-5.99517-2.24031-18.65796-2.61249-20.9412-3.70185s-3.84773-1.94032-4.05773-4.24232c-.259-2.845 2.32473-3.55568 4.05773-5.53768-22.116-5.281-58.92803-18.56022-61.36928-21.00646s-2.30065-1.08338-4.54228-5.66435-1.56168-12.86262-.58548-15.85019 1.00405-2.75692 3.90005-6.87399 10.571-10.214 18.583-11.248c5.823-.751 14.561-.053 22.496-.489 9.657-.53 21.441.228 30.81.489 .616-6.581-.536-19.41 0-27.386-4.722-4.922-11.46659-12.952-5.869-21.029s20.19-5.485 33.744-3.423c11.448,1.741 23.356,1.551 35.701,3.423 7.817,1.186 16.211,1.985 22.985,3.423 3.382.72 7.078,1.609 8.804,4.403zm-11.737-1.956c-5.586-.972-14.511-2.042-20.051-2.934-8.862-1.427-18.453-2.344-27.857-3.165-11.074-.966-23.685-3.511-32.784-.748-1.947.591-4.861,2.286-5.38,4.891 8.036-3.887 21.207-2.985 31.788-2.445 6.379.325 13.615.8 20.703,1.711 9.347,1.202 18.306,2.111 27.224,3.179 3.284.393 6.757,1.205 8.847,1.812 1.867.543 4.54,3.355 5.824,1.122-1.763-2.547-5.435-2.922-8.314-3.423zm149.648,11.51914c-7.29945,4.4475-12.72046,13.6752-14.183,21.73686-1.39277,7.67709.424,15.188-2.935,22.496-3.664.677-8.964-.66-13.204-.979-2.561-.441-1.84,2.398-4.401,1.957 .097-1.4.061-2.669-1.467-2.445-21.214-1.957-38.921-3.762-60.642-5.379-7.654,7.677-21.599,6.46-28.854,1.956-2.255-1.4-4.161-4.714-6.357-5.379-7.583-2.299-16.544,1.751-23.963,0-.309,3.446.208,9.75 0,14.671 38.066.524 62.57011,1.19561 98.29211,1.61661 2.892.034 10.46765-.0505 13.02565-.37402s2.75719-.72659 8.00269-1.73159 14.23755-1.458 21.03555-3.423c.924.217 2.947-.665 2.445.978 9.984-7.388 25.712-3.45 39.612-3.423 .922-14.601 2.929-29.189 1.468-45.481-9.42254-3.63485-19.48525-1.68368-27.875,3.20314zm-182.903,9.02086c.036,5.504.184,10.594 0,15.649-.075,2.059-2.087,6.295 1.467,6.847 3.013-.434.892-3.711.978-5.869 .084-2.101.455-4.476.489-6.847 .1-6.941 1.312-17.506-1.956-19.562-2.064,3.788-1.001,6.387-.978,9.782zm-47.438-7.336c.398,7.305-1.235,18.529 0,26.898 .121.821.029,2.573 1.467,2.934 3.274-.233 1.941-5.098 1.956-7.825 .037-6.855.073-13.986-.978-17.606-.039-1.832 2.108-1.478 1.467-3.912-1.338-1.076-2.413-1.815-3.912-.489zm44.993,5.869c.717-.775 1.009-3.883-.979-3.423-.678,1.459-.577,2.993.979,3.423zm-38.635,4.891c-.157-1.788 1.316-1.944 2.445-2.445-.169-1.872.104-3.906-3.423-3.423-.193,2.233-.532,4.334.978,5.868zm37.656,2.934c.443,4.696-1.144,11.57.979,16.139 .126-4.165.043-7.811 0-10.27-.084-4.799 1.404-9.545-.489-13.204-1.109,2.34-.741,4.669-.49,7.335zm8.803.489c.124,5.806-.947,11.055 0,15.649 5.039-.584 12.216-.595 18.583,0 1.123-6.539.177-15.147.489-22.496-5.825,2.814-12.531,4.748-19.072,6.847zm-33.744,6.847c3.615-2.254 6.969-4.768 10.27-7.336-8.861-.806-12.25-2.76-21.029-2.445 3.932,2.914 6.493,7.2 10.759,9.781zm22.496-7.825c.154-.662.696-.934.489-1.957h-1.467c-.137,1.115.118,1.839.978,1.957zm-5.38.489c-4.284,3.867-9.02,7.282-13.204,11.248 1.673,2.566 2.736,5.741 7.825,4.891 2.508-5.48 5.864-10.111 7.825-16.139h-2.446zm-2.444,15.649c1.37.405 5.876,1 8.313,0-.745-5.547 1.243-11.242-.978-15.649-1.969,5.693-5.135,10.188-7.335,15.649zm-13.205-5.868c4.514-2.172 9.682-6.291 11.737-9.292-3.904,3.106-8.507,5.513-11.737,9.292zm-15.16-1.467c2.42.04 2.108-7.304 0-7.336-.747,1.662.256,3.843 0,7.336zm11.248.978c-.099-1.876-2.359-4.136-3.423-3.423 1.705.576 1.241,3.322 3.423,3.423zm-7.336,5.868c1.074-.883 2.416-1.497 2.935-2.935-1.627-1.308-1.106-4.762-3.423-5.379-.053,2.314-.827,7.032.488,8.314zm4.891-4.401c-.257-1.08-1.639-3.533-2.445-2.445 1.587.042.343,2.916 2.445,2.445zm-7.825,5.38c.696-1.715 1.25-6.97-.978-7.336 .423,2.348-.978,6.52.978,7.336zm11.248-3.424c1.289.147 1.605-.677 1.467-1.956h-1.467v1.956zm182.903,12.716c3.13,1.108 7.318,1.159 11.248,1.467 1.175-4.204-.141-10.9.979-15.16-.108-.381-.41-.569-.979-.489-3.782,4.693-7.016,9.936-11.248,14.182zm-185.348-12.716c-.394,2.961 2.241.326 0,0zm4.401,1.956c.334,1.459 1.947,1.64 3.913,1.467-.094-2.025-1.46-2.778-2.935-3.423-.006.972-1.334.622-.978,1.956zm-8.314,1.468h2.934c.21-2.367-2.85-1.415-2.934,0zm-52.328,5.379c-2.061.268.237-3.823-1.956-3.423-2.839-.883-.248,3.665-2.935,2.935-1.772-.021-.114-3.472-2.445-2.935-1.924-.294.125,3.385-1.956,2.935-1.809.341-2.161-.774-1.956-2.445-2.792-.347-1.016,3.875-3.913,3.423-1.908-.65-.099-2.185-.978-3.423-2.429.18-4.178,1.039-5.869,1.956 .274,3.476-.581,8.079.489,10.759 22.658.189 36.473.527 60.153.489-.238-4.49.53-9.985-.489-13.693-5.278.456-6.304.024-12.226,0-1.78.34-.833,3.405-3.423,2.935-1.403-.391-.308-3.279-2.445-2.935-1.55.406-.274,3.638-2.934,2.935-1.129-.501.014-3.274-1.957-2.935-2.198-.405-.541,3.045-2.445,2.935-1.957.326-1.966-1.294-1.957-2.935h-3.423c.232,1.862-.208,3.053-1.467,3.423-2.148-.134-.644-3.92-2.935-3.912-1.656.623-.494,4.067-2.933,3.911zm88.518-3.423c-.339,14.716-.554,29.067-.489,48.90499 .011,3.474.837,7.299-.978,10.27-2.155-2.776-1.085-6.966-.978-10.759 .497-17.53299.634-30.02899.489-41.56899-.028-2.257.432-5.218-1.467-6.357-.047,12.291.086,28.039 0,39.61299-.03,4.15 1.005,8.863-1.467,11.737-1.287-.669-.23-3.682-2.445-3.423-9.931-.405-18.434.123-29.343,1.957-1.763.52-1.286,3.279-2.934,3.912-1.759-8.163-.979-18.20099-.979-27.87499 0-5.144.047-10.03 0-14.671-.042-4.071.697-8.435-.978-11.737-.851,20.468-.328,34.793-.489,49.39399-.02,1.82 2.108,5.37-.978,6.357-1.538-3.643-.491-7.262-.489-11.737 .004-8.31599-.208-23.68799-.489-37.16699-.041-1.954 1.397-6.496-1.956-6.847-1.393,2.416-1.344,6.014-1.467,8.803-.675,15.354.946,30.387.489,44.01399-.063,1.891 1.165,5.428-1.467,6.357-1.587-.715.36-2.683-1.467-2.445-3.5,1.441-9.146,3.174-9.292,6.358 4.198,1.303 8.563.188 12.715,0 26.583-1.208 56.556-.457 81.67,3.912-.933-3.795-4.517-4.938-7.825-6.357-.903-1.39-1.479,3.302-2.934,1.467-.756-.711-.431-2.504-.489-3.912-6.608-2.031-11.965-5.315-19.073-6.847-.474,3.39.676,5.492-.978,7.824-2.573-2.269-1.467-6.333-1.467-9.292 0-19.85999.708-34.83099 0-49.39399-.103-.549-.542-.761-.978-.978-.082.568-.773.529-1.467.487zm-38.635.489c.167,4.561-.428,9.882.489,13.693h13.205c-1.744-5.429-4.851-9.495-7.336-14.183-2.084.199-5.039-.473-6.358.49zm15.65,10.759c1.949-3.93-2.996-8.048-5.379-10.759-.108-.381-.41-.569-.978-.489 1.478,4.389 3.459,8.277 6.357,11.248zm-1.957-10.759c1.216,2.208 2.042,4.804 4.401,5.869 .604-2.139 3.049-4.59 2.445-6.358-2.232.212-5.384-.495-6.846.489zm9.781,0c-1.947,2.292-3.039,5.438-3.913,8.803 1.129,1.805 1.903,3.966 3.913,4.891 1.152.555 7.359-.8 7.825,1.956-1.417,1.191-5.752-.536-6.357,1.467h6.847c1.422-5.085 2.084-11.074.978-17.606-3.003.258-7.081-.56-9.293.489zm20.54,14.182c7.001.011 10.683.622 19.073.489v-14.671c-5.447-.526-13.425.346-19.073-.489-.656,4.037.102,11.45 0,14.671zm-119.816-10.27c-6.652,4.938-10.81125,20.62632-8.35418,25.431s5.70918,6.557 10.31018,8.313c.13-8.489-.489-15.958-.489-25.43 0-3.117.821-6.852-.979-8.314h-.488zm92.43,9.781c.652.698 2.771.698 3.423,0-.216-1.415-1.031-2.229-2.445-2.445-.21.931-1.054,1.228-.978,2.445zm197.085-1.467c-1.54994,2.41076 3.90172,1.70477 8.02622,2.39927s10.31478.74873 16.91478,1.02373c1.928.135 1.496-2.091 3.424-1.956 .552.915.578,2.356 2.445,1.956 7.451-1.102 13.811-.275 20.539-3.423-18.961.014-49.79906-2.41076-51.349,0zm-285.114,2.445c-.381.108-.569.409-.489.978-.001.491.396.582.489.978 16.557.644 37.111-1.193 52.817-.489 2.687.121 6.018,1.671 7.336,0-19.28-1.502-42.932-.461-60.153-1.467zm71.89,1.956c2.487.709 4.971.729 6.847-.489-1.998.072-5.849-1.649-6.847.489zm7.825,0c.98.836 3.965.712 4.401-.489-1.337-.551-3.138-.301-4.401.489zm10.27.49c1.111-.356 3.815.881 3.423-.979h-3.423v.979zm30.81-.49c-1.646.31-4.542-.63-5.379.489 1.824.57 4.593.793 5.379-.489zm1.956.978c3.591-.322 8.471.646 11.248-.489-3.319.667-8.406-1.631-11.248.489zm24.452,0c-.974.323-9.984-1.892-10.27,0 4.453-.275 8.98.428 10.27,0zm3.424-.488c-.711.267-2.528-.572-2.445.489 .71-.268 2.527.571 2.445-.489zm2.934,0c-3.133-.565-1.074,1.493 0,0zm-154.05,21.518c16.059,8.06799 35.772,12.47999 55.262,17.11599 2.095-1.328 4.927-1.919 6.847-3.423-.807-11.167-.8-21.70099-1.467-33.74399-10.564.175-24.569-.122-36.679,0-.281.86.591,2.874-.489,2.935-2.046.746-3.696.19-5.38,0-.005-1.299.185-2.793-.489-3.423-2.398.868-.88,3.147-3.423,3.912-1.273.383-1.601-.713-2.935,0-1.444-.349-.129-3.457-1.956-3.423-1.201.917.664,2.507-.978,3.423-1.53.1-3.59-.33-4.401.489-1.451-.831-.041-4.524-2.445-4.401h-.978c-1.119,5.889-.179,13.839-.489,20.539zm72.868.488c3.663-6.444 6.79-13.424 10.27-20.051-4.4-.962-6.779.388-10.759-.489-.782,7.906-.763,15.186.489,20.54zm26.408-1.467c-1.281-2.941-3.466-5.79-5.379-9.292-2.015-3.688-3.264-8.926-6.847-9.781-.082.57-.773.531-1.467.489-2.316,5.002-4.438,9.567-6.847,14.182-2.286,4.38-6.23,8.55799-6.358,14.67099 7.691-1.161 16.542-3.605 24.941-2.445 1.238-2.023 1.372-5.149 1.957-7.82399zm.979-3.912c3.174-6.437-1.447-10.026-3.913-14.671h-4.401c2.496,5.166 4.886,10.438 8.314,14.671zm2.445-9.781c-.343-2.136.832-2.755.489-4.891h-4.401c.688,2.246 1.308,4.561 3.912,4.891zm12.715,24.45199c7.05,1.589 12.544,4.735 19.073,6.847 .12-13.787.032-24.14999.489-35.21099-5.521-.317-11.696-.59-19.562-.489 .15,10.099-.102,19.95699 0,28.85299zm22.67185-28.89781c-.071.578-1.53585,1.15282-.66485,1.51082-.11,9.98.017,27.52099-.489,35.70099 5.846,2.913 11.917-.577 17.605-1.957 6.053-1.468 12.832-2.162 19.073-3.423 36.831-7.443 74.856-14.94599 112.48-22.49599 1.674-2.153 4.604-5.397 4.401-7.825-8.345,1.509-46.40486-2.04161-56.87086-.14961-43.02995.0166-36.40051-2.37089-95.53429-1.36121zm169.03515,4.93482c4.302-.291 9.6307-1.62257 12.1512-2.33557s3.4588-.22143 3.9878-2.06543c-4.877.653-15.394-1.82-16.139,4.401zm-8.803-3.423c-1.42.609-5.531,5.666-5.869,6.847 3.241-.671 5.985-1.839 9.781-1.956 .545-1.411.88-3.032.978-4.891-1.665-.804-3.62-.546-4.89,0zm-193.174,6.846c-.307-1.486.626-4.212-.489-4.891-.183,1.427-2.11,5.03.489,4.891zm-.489,14.18299c.005-4.35699 1.883-8.84699-1.467-11.73699-1.626,3.848-2.165,9.795 1.467,11.73699zm-4.401,3.423c1.067.26 3.163,1.184 3.423-.489-1.557-.562-.808-3.431-2.935-3.423 .347,1.813-.835,2.098-.488,3.912zm-42.548,19.562c1.719,2.489 5.242,1.317 7.825,1.467 19.002,1.102 41.617-1.016 62.109-.489-21.975-2.658-46.176-2.158-69.934-.978z" fill-rule="evenodd"/>
  <path transform="matrix(1.042 0 0 1.042 -10.252 -13.988)" d="m112.03 155.23c0 7.7122-6.252 13.964-13.964 13.964s-13.964-6.252-13.964-13.964 6.252-13.964 13.964-13.964 13.964 6.252 13.964 13.964z" fill="#fff" fill-rule="evenodd" stroke="#000" stroke-width="2.7692"/>
  <path d="m29.611 82.589s-0.04734-1.5792-0.49817-2.1466-0.97319-0.6268-0.97319-0.6268c-2.3274 2.6874 0.42572 17.301 0.42572 17.301s26.737 7.9087 29.594 8.904 14.192 5.3688 15.99 5.5678 7.1995 0.85898 7.1995 0.85898l6.2305-2.0584-2.4229-28.598c-0.63057-1.3183 0.30104-2.0355 0.21875-2.6756-11.587-0.057-32.43-0.30759-33.309 0.40603 0 0 0.2398 1.508-0.65749 2.8426s-13.97 0.36043-13.97 0.36043zm71.264-3.3848c-0.73892 3.4418-0.73389 7.3298-1.0312 10.967l0.4375 5.4687s1.4691-2.5877 3.0312-5.2923c2.6022-5.2384 4.1175-8.3686 5.4375-11.084l-6.4688-0.0588h-1.4062zm15.031 0.14701c-2.9403 4.7181-7.8418 12.997-11.875 19.905-0.0325 0.0588-0.0618 0.0891-0.0937 0.147-1.001 1.8146-1.7212 3.2382-1.875 3.7928-0.63473 2.2892 1.1875 1.7935 1.1875 1.7935s8.2492-1.599 12.375-1.4995 7.5 0.41162 7.5 0.41162 3.2887-3.1048 2.125-5.7921-7.1921-13.83-8.25-15.024c-0.77957-1.32-0.26703-1.3716-1.0938-3.734zm28.625 0.26461-0.29922 25.706c2.6175 1.5508 15.199 7.1845 16 3.9544 0.1048-9.8312 0.14312-21.864-0.0133-29.601l-15.688-0.0588zm22.062 0.0882 0.21388 35.254 39.137-8.6369s63.792-11.423 67.178-12.02 38.962-7.86 38.962-7.86l3.712-5.4552s1.0974 0.3155-25.683 0.0525c-12.658-0.12433-28.322 0.0176-29.137 0.0176-2.0451 0-65.465-0.4051-94.541-0.50559z" fill="#575757"/>
 </g>
 <g transform="translate(8.8898 181.7)" fill-rule="evenodd">
  <path d="m7.7023-181.15c-2.4323 6.4694-4.1343 21.165-4.1343 38.25s1.702 31.749 4.1343 38.219c2.4302-6.4748 4.1244-21.143 4.1244-38.219s-1.6942-31.775-4.1244-38.25z"/>
  <path d="m13.244-111.57v13.973h-0.54403c-9.6513 0-17.935-2.8671-21.589-6.9865 3.6576-4.1158 11.943-6.9865 21.589-6.9865h0.54403z"/>
  <path d="m7.7023-106.59c-2.4323 6.4694-4.1343 21.165-4.1343 38.25s1.702 31.749 4.1343 38.219c2.4302-6.4748 4.1244-21.143 4.1244-38.219s-1.6942-31.775-4.1244-38.25z"/>
 </g>
</svg>
