<svg xmlns="http://www.w3.org/2000/svg" xml:space="preserve" overflow="visible" version="1.1" viewBox="0 0 290.919 609.746"><g fill-rule="evenodd" clip-rule="evenodd"><path d="M6.528 14.18h1.576c3.145.793 3.154 4.724 5.515 6.302-.668 1.695-1.94 2.786-4.727 2.363-1.41-2.266-1.508-5.844-2.364-8.665zm16.544 18.907c-4.871 2.087-10.281 3.541-14.181 0 .477-1.887 1.133-3.595.788-6.303 4.859 1.278 11.747-2.42 13.393 6.303zm-7.091 40.177c-.651-3.288-2.285-8.905-1.575-11.029 9.807 1.465 19.526.453 25.997-5.514 10.555 10.31-10.585 18.028-24.422 16.543z" fill="#FFF"/><path d="M71.915 107.14c-1.634 2.568-2.124 6.28-3.939 8.666-.13 9.573 1.661 18.579 7.878 30.724 3.544 6.924 6.581 14.767 9.454 19.694 5.295 9.082 11.208 13.634 17.332 18.907 3.272.863 3.835-5.033 5.515-3.151 8.91 16.128 16.725 37.126 25.209 58.296 9.118 22.753 16.622 40.56 26.784 64.599 3.243 7.671 8.067 10.717 3.15 18.118-5.722 8.615-32.515 19.953-44.903 21.271-7.025.748-12.157-1.858-18.907-1.575-7.359-31.051-23.347-60.106-31.512-92.959-21.481-50.46-38.373-110.88-50.424-171.75 13.216-.964 22.887-5.473 31.512-11.028 6.604 14.402 14.53 27.485 22.846 40.178zm4.726 139.44c-3.436-9.335-6.873-29.859-14.968-28.361 8.529 13.398 12.469 31.644 19.695 46.479 2.161 4.438 5.744 9.583 9.453 12.604-4.871-8.38-9.546-18.13-14.18-30.72zm14.18 22.05c2.677 6.164 5.011 12.508 8.666 18.119-5.99-18.694-12.925-36.442-22.058-51.994 1.845 11.58 8.397 22.37 13.392 33.87zm22.059 25.21c-5.856-13.05-10.785-27.028-18.906-37.814 2.09 13.69 12.216 26.1 18.906 37.81zm6.3-.78c3.179 4.636 5.789 12.84 10.242 11.029-6.237-8.206-8.716-20.169-18.907-24.421 2.05 5.26 5.26 8.42 8.67 13.39z" fill="#FFF"/><path d="M73.49 115.8h1.575c5.513 2.834 11.181 18.438.788 17.332-.15-4.13-5.25-10.38-2.363-17.33z" fill="#FFF"/><path d="M90.821 145.74c-1.416 1.998-3.106 3.721-7.09 3.151-2.426-3.613-4.605-7.474-5.514-12.605 7.344-7.08 10.746 2.4 12.604 9.46z" fill="#FFF"/><path d="M92.397 168.59c-.309-6.145-6.417-7.825-5.515-13.392 2.343-14.45 23.098 10.32 5.515 13.39z" fill="#FFF"/><path d="M100.28 167.01c1.118-.067 2.23-.13 2.363.788-2.43 1.509-1.89 5.989-5.514 6.302-2.54-4.9 3.174-3.1 3.154-7.09zm-.793 7.09c1.827-.251 3.024.127 3.939.788-.686 1.153-1.18 2.497-3.151 2.363-.617-.7-.852-1.78-.793-3.15z" fill="#FFF"/><path d="M90.821 277.3c-3.709-3.021-7.292-8.166-9.453-12.604-7.227-14.836-11.167-33.081-19.695-46.479 8.095-1.499 11.533 19.025 14.968 28.361 4.634 12.59 9.309 22.34 14.18 30.72zm3.152-21.27c8.121 10.786 13.05 24.764 18.906 37.814-6.69-11.71-16.816-24.12-18.907-37.81zm16.547 23.63c10.19 4.252 12.669 16.216 18.907 24.421-4.453 1.811-7.063-6.393-10.242-11.029-3.42-4.96-6.63-8.12-8.67-13.39z"/><path d="M167.24 324.57c.671-.145.743.308.788.788.67-.146.743.308.788.788 20.295 47.75 39.271 108.21 56.72 156.77 1.227 3.41 3.819 6.593 3.939 9.453.282 6.724-7.194 16.259-12.604 20.483-8.873 6.928-20.547 10.126-32.299 11.028-7.462-21.001-14.192-41.376-21.271-64.598-1.88-6.171-5.704-11.926-7.877-18.12-8.59-24.487-16.604-49.194-23.634-73.264-4.668-4.785-6.131-12.775-8.666-19.694 17.34-5.24 34.93-10.23 44.11-23.64zm-20.49 39.39c10.76 19.438 23.691 36.705 32.298 58.296-3.108 1.487-5.16-.586-7.09 2.363 4.594 13.008 14.093 26.299 19.695 37.025 6.257 11.981 9.085 25.559 18.906 34.662-1.764-8.588-8.344-17.101-12.604-25.996-6.879-14.361-13.643-29.209-21.27-42.54 1.355-2.058 6.292-.535 7.09-3.151-11.682-21.405-21.36-44.813-35.45-63.811-.02 1.57-2.16 1.01-1.59 3.16zm27.58-39.39c15.156 5.59 26.748 14.743 41.753 20.482 14.206 32.897 23.768 72.506 37.814 103.2-.162 10.148 8.16 21.915 11.028 30.725.336 1.033-1.062 2.425-.788 3.938.979 5.37 5.271 6.726 3.151 10.242-3.508 5.819-21.257 7.335-28.36 11.028-20.38-62.54-41.74-120.84-64.59-179.62zm20.48 28.36c8.259 16.859 13.773 35.9 19.695 55.146 4.481 14.566 12.062 27.941 16.544 41.752 2.969 9.149 2.279 20.306 9.452 27.573-11.282-44.913-27.103-85.289-42.54-126.05-1.008-.043-1.091-1.01-2.363-.787-.12.93.14 2.24-.78 2.37zm13.39 5.51c1.729 5.361 4.478 9.703 5.515 15.755 9.759 13.956 14.426 34.732 20.481 53.57 2.578 8.016 4.317 16.729 7.092 24.421 2.777 7.703 5.086 15.789 9.453 22.059-9.058-43.2-24.782-79.731-38.602-118.17-1.085.033-1.73-.371-2.364-.788-.01 1.57-2.15 1-1.58 3.15zM91.609 346.62c1.273-.222 1.357.745 2.364.788 3.785 6.723 5.154 14.917 7.878 22.846 2.593 7.551 7.167 15.563 7.09 22.846-.042 4.041-2.946 6.718-2.363 12.604.851 8.587 6.928 21.868 11.029 33.088 1.91 5.224 4.403 10.613 6.302 15.755 9.812 26.564 21.828 58.581 29.148 84.293-7.523 3.506-15.036 7.022-23.634 9.454-9.341-27.818-21.626-53.425-30.724-82.718-5.195-16.729-13.991-32.201-17.331-50.418-4.166-3.976-5.651-10.63-7.878-16.544 6.894-19.23 13.811-31.59 18.112-52zM131 491.58c-11.419-34.814-23.621-67.583-36.238-97.686-.167-.952-.875-.484-1.576 0-.883.167-1.227.874-1.576 1.575 19.121 41.593 30.922 87.862 49.631 128.41-1.02-12.17-6.54-21.02-10.24-32.29zm-18.12-12.61c3.904 10.322 7.785 22.297 10.242 32.299 1.831 7.454.94 16.896 8.666 21.271-5.646-17.653-9.413-36.249-15.756-53.569-1.791-4.892-4.904-9.309-6.302-14.181-1.088-3.793-.499-8.039-1.576-11.816-3.872-13.572-10.924-26.378-17.332-37.813-.174-.614-.66-.917-1.575-.788 8.326 19.83 15.107 42.03 23.637 64.6zm-11.03-131.56c4.54 1.762 13.652-1.048 15.756 3.151-1.929 2.798-3.071 6.382-4.728 9.453-2.969-.605-3.766.961-6.302.788-2.27-3.76-4.43-7.65-4.73-13.39z" fill="#FFF"/><path d="M195.6 350.56c1.272-.223 1.355.744 2.363.787 15.438 40.758 31.258 81.134 42.54 126.05-7.173-7.268-6.483-18.424-9.452-27.573-4.482-13.811-12.062-27.186-16.544-41.752-5.922-19.245-11.437-38.286-19.695-55.146.91-.13.65-1.44.78-2.37z"/><path d="M119.18 354.5c.917-.127 1.402.174 1.576.788 18.775 50.622 37.125 108.22 56.721 162.28 1.748 4.822 5.795 11.9 5.515 14.18-.685 5.565-15.749 14.656-19.695 18.12-13.752-40.98-26.113-80.514-41.752-121.32-3.236-8.443-9.663-19.109-10.241-25.997-.59-7.025 5.191-23.834 6.302-31.511.88-6.12-1.12-10.34 1.57-16.54zm7.88 42.54c3.958 15.324 10.585 26.67 14.968 40.177 9.346 28.802 18.136 59.412 29.936 86.656-.113-10.294-5.686-18.665-8.666-27.573-7.27-21.732-11.074-40.438-18.118-60.658-1.572-4.513-5.455-8.783-7.09-13.393-3.376-9.515-4.603-19.977-10.241-28.36.17 1.48-.89 1.73-.79 3.14zm27.57 100.84c-2.205-7.826-3.392-16.321-5.515-23.633-2.115-7.288-6.511-13.646-8.665-20.483-4.541-14.408-7.565-29.104-14.18-42.54-1.39-.688-2.439-2.636-3.151 0 15.342 34.023 24.154 79.997 39.389 118.17 1.01-12.58-4.7-20.21-7.89-31.52z" fill="#FFF"/><path d="M209.78 355.29c.634.417 1.279.821 2.364.788 13.819 38.437 29.544 74.968 38.602 118.17-4.367-6.27-6.676-14.355-9.453-22.059-2.774-7.692-4.514-16.405-7.092-24.421-6.056-18.838-10.723-39.614-20.481-53.57-1.037-6.052-3.786-10.394-5.515-15.755-.57-2.15 1.57-1.58 1.58-3.15zm-61.45 5.52c14.09 18.997 23.769 42.405 35.45 63.811-.798 2.616-5.734 1.094-7.09 3.151 7.627 13.331 14.391 28.179 21.27 42.54 4.261 8.896 10.841 17.408 12.604 25.996-9.821-9.104-12.649-22.681-18.906-34.662-5.603-10.727-15.102-24.018-19.695-37.025 1.93-2.949 3.981-.876 7.09-2.363-8.607-21.591-21.538-38.857-32.298-58.296-.57-2.15 1.57-1.59 1.58-3.15z"/><path d="M112.88 363.17c.04 3.978-.307 7.57-1.575 10.241-4.116-1.137-3.609-6.896-4.727-11.029 3.08-.62 4.09-.81 6.31.79z" fill="#FFF"/><path d="M141.24 523.88c-18.708-40.547-30.51-86.816-49.631-128.41.349-.701.692-1.408 1.576-1.575.701-.484 1.409-.952 1.576 0 12.618 30.103 24.819 62.871 36.238 97.686 3.7 11.26 9.22 20.11 10.24 32.29zm-13.39-129.99c5.638 8.384 6.865 18.846 10.241 28.36 1.636 4.609 5.518 8.88 7.09 13.393 7.044 20.221 10.849 38.926 18.118 60.658 2.98 8.908 8.553 17.279 8.666 27.573-11.8-27.244-20.59-57.854-29.936-86.656-4.382-13.507-11.009-24.853-14.968-40.177-.1-1.4.96-1.65.79-3.14zm34.66 135.5c-15.235-38.171-24.047-84.145-39.389-118.17.712-2.636 1.762-.688 3.151 0 6.615 13.436 9.639 28.132 14.18 42.54 2.154 6.837 6.55 13.195 8.665 20.483 2.123 7.312 3.31 15.807 5.515 23.633 3.18 11.32 8.89 18.95 7.87 31.52zM89.246 414.38c.916-.129 1.401.174 1.575.788 6.408 11.436 13.46 24.241 17.332 37.813 1.077 3.777.488 8.023 1.576 11.816 1.397 4.872 4.511 9.289 6.302 14.181 6.343 17.32 10.109 35.916 15.756 53.569-7.725-4.374-6.834-13.816-8.666-21.271-2.457-10.002-6.338-21.977-10.242-32.299-8.53-22.58-15.311-44.78-23.634-64.6z"/><path d="M268.07 495.52c7.52 7.448 8.513 21.422 12.604 32.299-7.821.211-16.321-6.756-24.422-10.241-5.869-2.525-13.289-3.408-14.967-8.664 6.43-6.98 21.31-5.49 26.79-13.4zm-37.81 6.3c7.045-.216 5.5 8.156 7.879 12.605-11.687 12.734-25.42 23.423-48.843 24.421-2.64-3.454-3.411-9.143-3.939-12.604 18.03 3.184 28.457-7.676 39.39-14.181.7-4.54 5.46-5.03 5.51-10.24zm11.03 18.12c.363 4.823 4.511 8.495 3.15 12.604-4.837-1.526-10.752-5.081-7.878-11.817 2.41.58 2.32-1.35 4.73-.78zm-57.51 17.33c-.455 19.616-4.587 34.278-6.303 49.631-5.038-2.829-4.342-9.905-6.302-15.756-1.868-5.576-6.469-11.619-5.515-16.545.656-3.386 3.709-3.889 6.302-6.301 3.25-3.02 6.98-9.68 11.82-11.03zm-27.57 5.51c.942 2.734 1.234 6.119 3.151 7.877-7.136 10.975-8.842 23.555-16.543 34.663-4.84-10.127-8.799-21.136-11.816-33.087 9.22-2.33 15.8-7.3 25.21-9.45zM11.255 50.418c2.637-.855 14.184 1.978 18.907-2.363-4.549-2.769-11.933.328-18.119 0-.584-2.893-3.043-7.01-.788-10.242 3.577.878 11.524 1.066 14.968-2.363 1.372 3.374 5.632 6.206 3.939 10.241.098 1.74 3.341.334 4.727.788 8.279 12.212-10.567 14.245-20.482 13.392-1.74-2.461-.851-7.552-3.152-9.453z" fill="#FFF"/><path d="M77.429 234.76c9.133 15.551 16.068 33.3 22.058 51.994-3.654-5.611-5.988-11.955-8.666-18.119-4.995-11.5-11.547-22.29-13.392-33.87z"/><path d="M290.92 540.42c-16.679-3.446-26.878-16.552-44.904-22.058-2.04 11.27 8.901 20.46 7.09 31.512-11.382-1.32-9.664-19.005-18.907-20.482-3.803-.607-7.102 3.897-10.24 5.514-5.487 2.826-15.07 6.897-20.482 7.879-4.372.792-10.06-.565-12.604.787-4.035 2.144-3.422 8.109-3.939 14.181-.893 10.48-4.12 27.129-4.727 35.45-.451 6.2 1.343 12.179-2.363 16.544-8.156-1.562-4.187-15.246-9.453-19.696-1.063-9.417-4.495-22.638-10.241-29.934-8.202 10.967-7.79 30.547-19.694 37.812-2.456-8.846-4.394-14.905-7.878-24.422-1.454-3.969-6.164-11.728-7.878-16.543-.725-2.035-.016-5.045-.788-7.09-6.687-17.713-15.375-36.766-22.846-56.72-7.346-19.623-14.214-40.539-21.27-59.873-3.928-10.764-12.17-23.965-11.817-32.299.292-6.888 5.375-15.975 8.666-24.421 3.337-8.563 5.869-18.074 8.666-24.422 1.304-2.957 5.827-5.913 6.302-9.453.554-4.125-4.618-18.68-6.302-23.634-3.234-9.518-7.823-19.58-11.816-29.147-11.616-27.834-21.804-58.926-30.724-88.232-14.182-38.94-28.092-91.34-37.034-139.45-1.345-7.231-1.668-13.102-3.152-19.69C.491 33.234-1.143 10.577 1.01-.007c9.674 3.719 47.296 57.743 48.843 59.084 19.229 34.078 39.347 67.268 55.933 103.99 5.806 7.577 6.833 18.547 14.18 25.997 12.201 36.325 33.794 77.716 46.479 113.44 1.367 3.85.87 8.685 3.151 11.817 3.42 4.694 22.417 12.718 28.36 15.756 1.93.986 4.302.104 5.515.787 2.347 1.322 5.393 4.384 8.666 6.303 3.071 1.802 5.888 3.919 9.453 5.515 20.031 50.606 37.409 103.86 55.146 156.77 5.62 12.23 11.25 28.61 14.17 40.95zM8.89 22.85c2.787.423 4.059-.668 4.727-2.363-2.361-1.578-2.37-5.509-5.515-6.302H6.526c.856 2.82.954 6.398 2.364 8.665zm.787 3.938c.345 2.708-.311 4.417-.788 6.303 3.899 3.541 9.31 2.087 14.181 0-1.646-8.723-8.534-5.025-13.393-6.303zm4.727 33.088c9.915.853 28.761-1.18 20.482-13.392-1.385-.454-4.628.952-4.727-.788 1.693-4.036-2.567-6.867-3.939-10.241-3.444 3.43-11.391 3.241-14.968 2.363-2.254 3.231.205 7.348.789 10.241 6.187.328 13.57-2.769 18.119 0-4.724 4.341-16.271 1.508-18.907 2.363 2.301 1.901 1.412 6.992 3.151 9.454zm25.997-3.152c-6.47 5.967-16.19 6.979-25.997 5.514-.709 2.124.924 7.742 1.575 11.029 13.837 1.486 34.977-6.232 24.422-16.543zm8.666 10.242c-8.625 5.555-18.295 10.064-31.512 11.028 12.051 60.87 28.943 121.29 50.418 171.74 8.165 32.853 24.153 61.908 31.512 92.959 6.75-.283 11.882 2.323 18.907 1.575 12.388-1.317 39.181-12.655 44.903-21.271 4.917-7.401.093-10.447-3.15-18.118-10.162-24.039-17.667-41.846-26.784-64.599-8.484-21.169-16.299-42.167-25.209-58.296-1.68-1.882-2.243 4.015-5.515 3.151-6.124-5.273-12.036-9.825-17.332-18.907-2.873-4.927-5.909-12.77-9.454-19.694-6.217-12.145-8.008-21.151-7.878-30.724 1.815-2.386 2.305-6.098 3.939-8.666-8.316-12.683-16.242-25.766-22.846-40.168zm26.784 66.178c10.394 1.107 4.725-14.498-.788-17.332h-1.575c-2.887 6.94 2.213 13.19 2.363 17.33zm2.364 3.15c.909 5.131 3.088 8.992 5.514 12.605 3.984.569 5.674-1.154 7.09-3.151-1.858-7.07-5.26-16.55-12.604-9.46zm8.665 18.9c-.903 5.567 5.206 7.248 5.515 13.392 17.583-3.06-3.172-27.83-5.515-13.39zm10.242 18.91c3.625-.313 3.084-4.793 5.514-6.302-.133-.917-1.246-.855-2.363-.788.02 3.99-5.694 2.19-3.156 7.09zm3.156 3.15c1.971.134 2.466-1.21 3.151-2.363-.915-.661-2.112-1.039-3.939-.788-.063 1.37.172 2.45.789 3.15zm22.84 170.95c2.534 6.919 3.997 14.909 8.666 19.694 7.03 24.069 15.043 48.776 23.634 73.264 2.173 6.194 5.997 11.949 7.877 18.12 7.079 23.222 13.81 43.597 21.271 64.598 11.752-.902 23.426-4.101 32.299-11.028 5.41-4.225 12.887-13.76 12.604-20.483-.12-2.86-2.713-6.043-3.939-9.453-17.449-48.556-36.425-109.02-56.72-156.77-.045-.48-.118-.934-.788-.788-.045-.48-.117-.933-.788-.788-9.17 13.42-26.76 18.41-44.11 23.64zm115.8 155.98c7.104-3.693 24.853-5.209 28.36-11.028 2.12-3.517-2.173-4.872-3.151-10.242-.274-1.514 1.124-2.905.788-3.938-2.868-8.81-11.19-20.576-11.028-30.725-14.047-30.693-23.608-70.302-37.814-103.2-15.005-5.739-26.597-14.893-41.753-20.482 22.85 58.79 44.21 117.09 64.59 179.62zm-165.43-105.56c2.227 5.914 3.712 12.568 7.878 16.544 3.34 18.217 12.136 33.688 17.331 50.418 9.097 29.293 21.382 54.899 30.724 82.718 8.598-2.432 16.11-5.948 23.634-9.454-7.321-25.712-19.337-57.729-29.148-84.293-1.899-5.142-4.392-10.531-6.302-15.755-4.102-11.22-10.179-24.501-11.029-33.088-.583-5.887 2.321-8.563 2.363-12.604.077-7.282-4.497-15.295-7.09-22.846-2.724-7.929-4.093-16.123-7.878-22.846-1.007-.043-1.091-1.01-2.364-.788-4.29 20.41-11.207 32.77-18.108 52zm33.09-37.81c2.536.173 3.333-1.394 6.302-.788 1.656-3.071 2.799-6.655 4.728-9.453-2.104-4.199-11.216-1.39-15.756-3.151.3 5.73 2.46 9.62 4.73 13.39zm11.03 10.24c-1.111 7.677-6.893 24.485-6.302 31.511.578 6.888 7.004 17.554 10.241 25.997 15.639 40.806 28 80.339 41.752 121.32 3.946-3.464 19.011-12.555 19.695-18.12.28-2.279-3.767-9.357-5.515-14.18-19.596-54.062-37.945-111.66-56.721-162.28-.174-.614-.659-.915-1.576-.788-2.69 6.19-.69 10.41-1.57 16.54zm-11.03-8.67c1.118 4.134.611 9.893 4.727 11.029 1.268-2.671 1.614-6.264 1.575-10.241-2.22-1.6-3.23-1.41-6.3-.79zm134.71 146.53c1.678 5.256 9.098 6.139 14.967 8.664 8.101 3.485 16.601 10.452 24.422 10.241-4.092-10.877-5.085-24.851-12.604-32.299-5.49 7.92-20.37 6.43-26.79 13.4zm-16.55 3.15c-10.933 6.505-21.359 17.364-39.39 14.181.528 3.462 1.3 9.15 3.939 12.604 23.423-.998 37.156-11.687 48.843-24.421-2.379-4.449-.834-12.821-7.879-12.605-.04 5.21-4.8 5.7-5.51 10.24zm11.82 8.67c-2.874 6.736 3.041 10.291 7.878 11.817 1.36-4.109-2.787-7.781-3.15-12.604-2.41-.58-2.32 1.35-4.73.78zm-64.6 27.57c-2.593 2.412-5.646 2.915-6.302 6.301-.954 4.926 3.646 10.969 5.515 16.545 1.96 5.851 1.264 12.927 6.302 15.756 1.716-15.353 5.848-30.015 6.303-49.631-4.84 1.35-8.57 8.01-11.82 11.03zm-40.96 3.94c3.017 11.951 6.976 22.96 11.816 33.087 7.701-11.108 9.408-23.688 16.543-34.663-1.917-1.758-2.209-5.143-3.151-7.877-9.41 2.14-15.99 7.11-25.21 9.45z"/></g></svg>